# xmcd
#
# Track frame offsets: 
#        150
#        16567
#        28601
#        39668
#        52041
#        68994
#        84753
#        104658
#        121107
#        143042
#        157858
#
# Disc length: 2323 seconds
#
# Revision: 0
# Processed by: cddbd v1.5.2PL0 Copyright (c) Steve Scherf et al.
# Submitted via: ExactAudioCopyFreeDBPlugin 1.0
#
DISCID=8109110b
DTITLE=Lounge Orchestra - 2004 Summer Lounge Cafe
DYEAR=2004
DGENRE=Pop
TTITLE0=Decisione
TTITLE1=De Tes Yeux Verts
TTITLE2=Si E'
TTITLE3=Taxi
TTITLE4=Rum Ba
TTITLE5=Jour Et Nuit
TTITLE6=La Principessa
TTITLE7=I Song
TTITLE8=Star Home
TTITLE9=Jam
TTITLE10=Perlisa
EXTD=
EXTT0=
EXTT1=
EXTT2=
EXTT3=
EXTT4=
EXTT5=
EXTT6=
EXTT7=
EXTT8=
EXTT9=
EXTT10=
PLAYORDER=
